<svg width="8" height="7" viewBox="0 0 8 7" fill="none" xmlns="http://www.w3.org/2000/svg">
<g id="jam:check">
<path id="Vector" d="M3.20856 4.76837C3.17162 4.76845 3.13503 4.76123 3.10089 4.74713C3.06675 4.73302 3.03573 4.71232 3.00961 4.6862L1.81591 3.49222C1.78901 3.46628 1.76755 3.43524 1.75278 3.40092C1.73801 3.3666 1.73022 3.32968 1.72987 3.29232C1.72952 3.25495 1.73661 3.21789 1.75074 3.1833C1.76486 3.14871 1.78574 3.11727 1.81214 3.09083C1.83854 3.06439 1.86994 3.04348 1.90452 3.0293C1.93909 3.01513 1.97614 3.00798 2.0135 3.00828C2.05087 3.00858 2.0878 3.01632 2.12214 3.03104C2.15648 3.04576 2.18755 3.06718 2.21353 3.09403L3.20828 4.08879L4.9994 2.29823C5.05216 2.24543 5.12374 2.21575 5.19839 2.21572C5.27304 2.2157 5.34464 2.24533 5.39744 2.29809C5.45024 2.35086 5.47992 2.42244 5.47995 2.49708C5.47997 2.57173 5.45034 2.64333 5.39758 2.69613L3.40751 4.6862C3.38139 4.71232 3.35037 4.73302 3.31623 4.74713C3.28209 4.76123 3.2455 4.76845 3.20856 4.76837Z" fill="#2FAB73"/>
</g>
</svg>
